<?xml version="1.0" encoding="UTF-8"?>
<svg width="3844px" height="1118px" viewBox="0 0 3844 1118" version="1.1" xmlns="http://www.w3.org/2000/svg" xmlns:xlink="http://www.w3.org/1999/xlink">
    <!-- Generator: Sketch 52.5 (67469) - http://www.bohemiancoding.com/sketch -->
    <title>Artboard</title>
    <desc>Created with Sketch.</desc>
    <g id="Artboard" stroke="none" stroke-width="1" fill="none" fill-rule="evenodd">
        <g id="Group-3" transform="translate(646.000000, 553.000000) rotate(-14.000000) translate(-646.000000, -553.000000) translate(90.000000, 87.000000)" fill-rule="nonzero">
            <path d="M642.136259,255.250618 C892.434933,255.250618 1064.70294,330.166317 1107.32638,405.790897 C1108.56527,400.234746 1109.19788,394.609753 1109.19788,388.926328 C1109.19788,284.258062 894.640365,199.407667 629.970261,199.407667 C577.37082,199.407667 526.750624,202.758913 479.400442,208.950948 C462.352123,211.180376 445.72771,213.778067 429.58745,216.720196 C264.989447,246.723962 150.742645,312.548871 150.742645,388.926328 C150.742645,402.950695 154.594591,416.619271 161.902911,429.775623 C173.186945,369.228232 257.850525,319.587147 372.255027,288.934877 C387.665479,284.805972 403.615565,281.021609 419.998628,277.601543 C489.018207,263.193275 565.722348,255.250618 642.136259,255.250618 Z" id="Oval" fill="#E2E2E2" transform="translate(629.970261, 314.591645) rotate(26.000000) translate(-629.970261, -314.591645) "></path>
            <path d="M429.58745,216.720196 C264.989447,246.723962 150.742645,312.548871 150.742645,388.926328 C150.742645,402.950695 154.594591,416.619271 161.902911,429.775623 C173.186945,369.228232 257.850525,319.587147 372.255027,288.934877 M419.998628,277.601543 C489.018207,263.193275 565.722348,255.250618 642.136259,255.250618 C892.434933,255.250618 1064.70294,330.166317 1107.32638,405.790897 C1108.56527,400.234746 1109.19788,394.609753 1109.19788,388.926328 C1109.19788,284.258062 894.640365,199.407667 629.970261,199.407667 C577.37082,199.407667 526.750624,202.758913 479.400442,208.950948" id="Oval-Copy-6" stroke="#000000" stroke-width="12" fill="#E2E2E2" stroke-linecap="round" stroke-linejoin="round" transform="translate(629.970261, 314.591645) rotate(26.000000) translate(-629.970261, -314.591645) "></path>
            <path d="M167.279131,144.505778 C142.787938,194.655667 148.280884,216.779615 148.280884,240.892263 C148.280884,266.802941 161.673289,291.499156 185.917133,313.99435 C188.861425,291.040018 189.120654,278.359081 190.386143,251.550095 C181.347969,242.023255 166.802358,227.682697 163.109658,213.813145 C157.070437,191.130204 151.802869,180.33084 167.279131,144.505778 Z" id="Oval-Copy-8" stroke="#444BC9" stroke-width="4.8" fill="#444BC9" stroke-linecap="round" stroke-linejoin="round" transform="translate(169.070153, 229.250064) rotate(26.000000) translate(-169.070153, -229.250064) "></path>
            <path d="M155.283446,132.510926 C130.792253,182.660815 136.285199,204.784763 136.285199,228.897411 C136.285199,254.808089 149.677604,279.504304 173.921448,301.999498 C176.86574,279.045166 177.124969,266.364229 178.390458,239.555243 C169.352284,230.028403 154.806673,215.687845 151.113973,201.818293 C145.074752,179.135352 139.807184,168.335988 155.283446,132.510926 Z" id="Oval-Copy-10" stroke="#000000" stroke-width="12" stroke-linecap="round" stroke-linejoin="round" transform="translate(157.074468, 217.255212) rotate(26.000000) translate(-157.074468, -217.255212) "></path>
            <path d="M878.51674,748.397449 C959.521714,714.457531 1005.42753,666.857324 1012.98358,627.298372 C1015.55524,613.834708 1021.2991,585.886634 990.792612,523.343412 C1006.20692,554.945227 1000.56599,580.043141 989.413243,601.060147 C965.189604,646.708854 907.088499,674.147835 882.219637,686.276347 C881.602007,707.254762 879.86846,712.26845 878.51674,748.397449 Z" id="Oval-Copy-9" stroke="#000000" stroke-width="12" stroke-linecap="round" stroke-linejoin="round" transform="translate(946.838100, 635.870431) rotate(26.000000) translate(-946.838100, -635.870431) "></path>
            <path d="M890.512425,760.392301 C971.517399,726.452383 1017.42322,678.852176 1024.97926,639.293224 C1027.55092,625.82956 1033.29478,597.881486 1002.7883,535.338264 C1018.2026,566.940079 1012.56167,592.037993 1001.40893,613.054999 C977.185289,658.703706 919.084184,686.142687 894.215322,698.271199 C893.597692,719.249614 891.864145,724.263302 890.512425,760.392301 Z" id="Oval-Copy-7" stroke="#3926A5" stroke-width="4.8" fill="#444BC9" stroke-linecap="round" stroke-linejoin="round" transform="translate(958.833785, 647.865283) rotate(26.000000) translate(-958.833785, -647.865283) "></path>
            <path d="M155.283446,132.510926 C130.792253,182.660815 136.285199,204.784763 136.285199,228.897411 C136.285199,254.808089 149.677604,279.504304 173.921448,301.999498 C176.86574,279.045166 177.124969,266.364229 178.390458,239.555243 C169.352284,230.028403 154.806673,215.687845 151.113973,201.818293 C145.074752,179.135352 139.807184,168.335988 155.283446,132.510926 Z" id="Oval-Copy" stroke="#000000" stroke-width="12" fill-opacity="0" fill="#FFFFFF" stroke-linecap="round" stroke-linejoin="round" transform="translate(157.074468, 217.255212) rotate(26.000000) translate(-157.074468, -217.255212) "></path>
            <path d="M878.51674,748.397449 C959.521714,714.457531 1005.42753,666.857324 1012.98358,627.298372 C1015.55524,613.834708 1021.2991,585.886634 990.792612,523.343412 C1006.20692,554.945227 1000.56599,580.043141 989.413243,601.060147 C965.189604,646.708854 907.088499,674.147835 882.219637,686.276347 C881.602007,707.254762 879.86846,712.26845 878.51674,748.397449 Z" id="Oval-Copy-3" stroke="#000000" stroke-width="12" fill-opacity="0" fill="#FFFFFF" stroke-linecap="round" stroke-linejoin="round" transform="translate(946.838100, 635.870431) rotate(26.000000) translate(-946.838100, -635.870431) "></path>
            <g id="Group" transform="translate(436.772802, 587.012329) rotate(-330.000000) translate(-436.772802, -587.012329) translate(25.772802, 426.012329)">
                <path d="M125.954693,2.50111043e-12 L722.544969,6.91875307 C740.060775,63.6278684 744.154731,124.336314 734.826837,189.044089 C727.204832,241.918076 701.676881,287.048276 672.221206,292.003128 C475.718131,325.057667 357.170606,338.581754 181.312069,291.399608 C156.585984,284.765698 133.579025,248.414611 125.954693,195.524478 C116.62835,130.827467 116.62835,65.6526407 125.954693,2.50111043e-12 Z" id="Rectangle-Copy" stroke="#000000" stroke-width="12" fill="#E2E2E2" stroke-linecap="round" stroke-linejoin="round"></path>
                <path d="M133.750892,13.502476 L704.745498,13.502476 C710.295671,67.7647454 708.635673,121.266959 699.765505,174.009116 C692.494375,217.24337 679.427423,247.925946 605.206989,258.873376 C424.111248,285.584793 364.352929,292.339975 194.113148,248.368145 C173.849158,243.134088 146.750583,210.687139 139.492218,167.528791 C130.61354,114.736029 128.699764,63.3939243 133.750892,13.502476 Z" id="Rectangle-Copy-7" fill="#444BC9"></path>
                <path d="M536.548118,254.142137 C400.222229,272.974493 335.941715,273.512775 186.316948,234.865669 C166.052959,229.631612 138.954383,197.184663 131.696019,154.026314 C122.81734,101.233553 120.903565,49.8914483 125.954693,2.72848411e-12 L696.949299,2.72848411e-12 C702.499471,54.2622694 700.839473,107.764483 691.969305,160.50664 C684.698175,203.740894 671.631224,234.42347 597.410789,245.3709" id="Rectangle-Copy-3" stroke="#000000" stroke-width="12" stroke-linecap="round" stroke-linejoin="round"></path>
                <path d="M125.954693,2.04636308e-12 L696.949299,2.04636308e-12 C699.348383,33.4674734 700.371242,58.486229 700.017876,75.0562668 C699.405794,103.758014 658.986847,154.775453 584.766413,165.722883 C403.670672,192.4343 355.244084,195.115937 234.094453,163.861796 C197.715951,154.476883 125.400137,109.352405 124.144537,87.4095881 C123.014788,67.6661477 123.618174,38.5296183 125.954693,2.04636308e-12 Z" id="Rectangle-Copy-4" stroke="#000000" stroke-width="12" fill="#E2E2E2" stroke-linecap="round" stroke-linejoin="round"></path>
                <path d="M130.915649,39.7786471 L701.910255,39.7786471 C704.309339,45.369278 705.332198,49.5485784 704.978832,52.3165485 C704.36675,57.1110806 594.744604,62.8047762 413.648864,67.2668301 C232.553123,71.7288841 130.361093,58.045605 129.105493,54.38013 C127.975745,51.0820535 128.57913,46.2148926 130.915649,39.7786471 Z" id="Rectangle-Copy-6" fill="#444BC9"></path>
                <path d="M494.514952,29.98713 L694.871585,29.98713 C697.270669,35.5777608 698.293528,39.7570613 697.940162,42.5250314 C697.375505,46.9480748 604.038926,52.1363424 447.400303,56.4169391 M406.610194,57.475313 C319.274014,59.6272065 250.289239,57.5588628 202.127174,54.429204 C188.848801,53.5663511 177.153195,52.622826 167.092144,51.6648288 C137.976756,48.8925079 122.549945,45.9989899 122.066823,44.5886129 C120.937075,41.2905364 121.54046,36.4233754 123.876979,29.98713 L457.322812,29.98713" id="Rectangle-Copy-5" stroke="#000000" stroke-width="12" stroke-linecap="round" stroke-linejoin="round"></path>
                <path d="M11.0017227,6 C5.79706342,35.4738075 5.71136501,54.4980964 10.104419,62.1065607 C16.9825694,74.0190393 54.201373,91.2092277 119.954693,111.806543 L119.954693,6 L11.0017227,6 Z" id="Rectangle-Copy-9" stroke="#000000" stroke-width="12" fill="#FFFFFF"></path>
                <path d="M706.760257,6 C701.497125,33.7792616 701.764505,52.7628351 707.047052,62.4946395 C708.826511,65.7728577 719.624666,72.4518478 738.273128,80.9347909 C756.644521,89.291699 782.492396,99.4633569 815.784975,111.432011 L815.784975,6 L706.760257,6 Z" id="Rectangle-Copy-8" stroke="#000000" stroke-width="12" fill="#FFFFFF" transform="translate(759.367137, 59.974260) scale(-1, 1) translate(-759.367137, -59.974260) "></path>
            </g>
            <ellipse id="Oval-2-Copy-2" fill="#3926A5" cx="299.292341" cy="399.229086" rx="12.5954693" ry="32.3861004"></ellipse>
            <ellipse id="Oval-2" stroke="#000000" stroke-width="12" cx="293.294498" cy="389.633205" rx="12.5954693" ry="32.3861004"></ellipse>
        </g>
        <path d="M1367,443.8 L1556.6,443.8 L1556.6,504.6 L1453,504.6 L1453,560.2 L1549,560.2 L1549,610.6 L1453,610.6 L1453,719 L1367,719 L1367,443.8 Z M1677.4,722.2 C1660.06658,722.2 1643.86674,717.600046 1628.8,708.4 C1613.73326,699.199954 1601.66671,686.666746 1592.6,670.8 C1583.53329,654.933254 1579,637.266764 1579,617.8 C1579,598.599904 1583.53329,581.200078 1592.6,565.6 C1601.66671,549.999922 1613.79992,537.800044 1629,529 C1644.20008,520.199956 1660.33325,515.8 1677.4,515.8 C1691.26674,515.8 1704.13327,519.666628 1716,527.4 C1727.86673,535.133372 1736.86664,546.733256 1743,562.2 L1743,515.8 L1827,515.8 L1827,719 L1743,719 L1743,681.8 C1729.6666,708.733468 1707.80015,722.2 1677.4,722.2 Z M1703.4,659 C1714.06672,659 1723.19996,655.200038 1730.8,647.6 C1738.40004,639.999962 1742.46666,631.000052 1743,620.6 L1743,617.4 C1742.46666,606.73328 1738.26671,597.666704 1730.4,590.2 C1722.53329,582.733296 1713.53338,579 1703.4,579 C1692.19994,579 1682.66671,582.933294 1674.8,590.8 C1666.93329,598.666706 1663,608.066612 1663,619 C1663,630.200056 1666.99996,639.666628 1675,647.4 C1683.00004,655.133372 1692.46661,659 1703.4,659 Z M1867.4,521.4 L1947.8,521.4 L1947.8,562.2 C1963.26674,531.266512 1987.79983,515.8 2021.4,515.8 C2047.00013,515.8 2067.06659,524.933242 2081.6,543.2 C2096.13341,561.466758 2103.4,586.733172 2103.4,619 L2103.4,719 L2019.4,719 L2019.4,610.6 C2019.4,599.133276 2016.93336,590.333364 2012,584.2 C2007.06664,578.066636 2000.20004,575 1991.4,575 C1984.99997,575 1978.73336,577.066646 1972.6,581.2 C1966.46664,585.333354 1961.46669,591.266628 1957.6,599 C1953.73331,606.733372 1951.8,615.533284 1951.8,625.4 L1951.8,719 L1867.4,719 L1867.4,521.4 Z M2142.2,521.4 L2222.6,521.4 L2222.6,562.2 C2238.06674,531.266512 2262.59983,515.8 2296.2,515.8 C2321.80013,515.8 2341.86659,524.933242 2356.4,543.2 C2370.93341,561.466758 2378.2,586.733172 2378.2,619 L2378.2,719 L2294.2,719 L2294.2,610.6 C2294.2,599.133276 2291.73336,590.333364 2286.8,584.2 C2281.86664,578.066636 2275.00004,575 2266.2,575 C2259.79997,575 2253.53336,577.066646 2247.4,581.2 C2241.26664,585.333354 2236.26669,591.266628 2232.4,599 C2228.53331,606.733372 2226.6,615.533284 2226.6,625.4 L2226.6,719 L2142.2,719 L2142.2,521.4 Z M2523.4,810.6 C2508.73326,810.6 2494.7334,809.133348 2481.4,806.2 L2487.8,747 C2498.20005,748.600008 2507.79996,749.4 2516.6,749.4 C2532.33341,749.4 2544.33329,744.666714 2552.6,735.2 C2560.86671,725.733286 2565.13333,707.933464 2565.4,681.8 C2551.53326,708.4668 2529.26682,721.8 2498.6,721.8 C2472.7332,721.8 2452.53341,712.666758 2438,694.4 C2423.46659,676.133242 2416.2,650.866828 2416.2,618.6 L2416.2,518.6 L2500.2,518.6 L2500.2,631 C2500.2,640.066712 2502.73331,647.59997 2507.8,653.6 C2512.86669,659.60003 2519.79996,662.6 2528.6,662.6 C2537.66671,662.6 2545.06664,658.733372 2550.8,651 C2556.53336,643.266628 2559.4,633.133396 2559.4,620.6 L2559.4,518.6 L2643.8,518.6 L2643.8,668.2 C2643.8,714.600232 2633.4001,749.933212 2612.6,774.2 C2591.7999,798.466788 2562.06686,810.6 2523.4,810.6 Z M2684.2,521.4 L2768.6,521.4 L2768.6,556.2 C2781.40006,529.266532 2803.13318,515.8 2833.8,515.8 C2851.66676,515.8 2868.13326,520.266622 2883.2,529.2 C2898.26674,538.133378 2910.13329,550.466588 2918.8,566.2 C2927.46671,581.933412 2931.8,599.533236 2931.8,619 C2931.8,638.466764 2927.33338,656.066588 2918.4,671.8 C2909.46662,687.533412 2897.46674,699.866622 2882.4,708.8 C2867.33326,717.733378 2851.26675,722.2 2834.2,722.2 C2803.79985,722.2 2781.9334,708.733468 2768.6,681.8 L2768.6,771 L2684.2,787 L2684.2,521.4 Z M2808.6,659 C2819.53339,659 2828.86663,655.00004 2836.6,647 C2844.33337,638.99996 2848.2,629.66672 2848.2,619 C2848.2,607.799944 2844.26671,598.333372 2836.4,590.6 C2828.53329,582.866628 2819.26672,579 2808.6,579 C2797.66661,579 2788.33337,582.799962 2780.6,590.4 C2772.86663,598.000038 2769,606.999948 2769,617.4 L2769,619 C2769,630.200056 2772.93329,639.666628 2780.8,647.4 C2788.66671,655.133372 2797.93328,659 2808.6,659 Z M3050.6,722.2 C3033.26658,722.2 3017.06674,717.600046 3002,708.4 C2986.93326,699.199954 2974.86671,686.666746 2965.8,670.8 C2956.73329,654.933254 2952.2,637.266764 2952.2,617.8 C2952.2,598.599904 2956.73329,581.200078 2965.8,565.6 C2974.86671,549.999922 2986.99992,537.800044 3002.2,529 C3017.40008,520.199956 3033.53325,515.8 3050.6,515.8 C3064.46674,515.8 3077.33327,519.666628 3089.2,527.4 C3101.06673,535.133372 3110.06664,546.733256 3116.2,562.2 L3116.2,515.8 L3200.2,515.8 L3200.2,719 L3116.2,719 L3116.2,681.8 C3102.8666,708.733468 3081.00015,722.2 3050.6,722.2 Z M3076.6,659 C3087.26672,659 3096.39996,655.200038 3104,647.6 C3111.60004,639.999962 3115.66666,631.000052 3116.2,620.6 L3116.2,617.4 C3115.66666,606.73328 3111.46671,597.666704 3103.6,590.2 C3095.73329,582.733296 3086.73338,579 3076.6,579 C3065.39994,579 3055.86671,582.933294 3048,590.8 C3040.13329,598.666706 3036.2,608.066612 3036.2,619 C3036.2,630.200056 3040.19996,639.666628 3048.2,647.4 C3056.20004,655.133372 3065.66661,659 3076.6,659 Z M3339.4,722.2 C3318.06656,722.2 3299.20008,717.86671 3282.8,709.2 C3266.39992,700.53329 3253.60005,688.333412 3244.4,672.6 C3235.19995,656.866588 3230.6,639.0001 3230.6,619 C3230.6,599.799904 3235.39995,582.333412 3245,566.6 C3254.60005,550.866588 3267.66658,538.466712 3284.2,529.4 C3300.73342,520.333288 3319.13323,515.8 3339.4,515.8 C3365.2668,515.8 3385.66659,521.13328 3400.6,531.8 L3393,585 C3377.79992,580.466644 3365.26672,578.2 3355.4,578.2 C3342.59994,578.2 3332.4667,581.86663 3325,589.2 C3317.5333,596.53337 3313.8,606.466604 3313.8,619 C3313.8,631.533396 3317.5333,641.533296 3325,649 C3332.4667,656.466704 3342.33327,660.2 3354.6,660.2 C3365.26672,660.2 3377.79993,657.933356 3392.2,653.4 L3399.8,709.4 C3390.73329,713.933356 3381.53338,717.19999 3372.2,719.2 C3362.86662,721.20001 3351.9334,722.2 3339.4,722.2 Z M3626.6,722.2 C3608.73324,722.2 3594.40005,719.86669 3583.6,715.2 C3572.79995,710.53331 3563.93337,702.733388 3557,691.8 C3550.06663,680.866612 3543.93336,665.266768 3538.6,645 L3515,663.8 L3515,719 L3430.2,719 L3430.6,455.4 L3515.4,443 L3515,579.8 L3617.8,495.8 L3663.8,558.6 L3599.4,603.4 C3602.60002,623.666768 3607.19997,637.79996 3613.2,645.8 C3619.20003,653.80004 3628.06661,657.8 3639.8,657.8 C3644.60002,657.8 3650.3333,657.000008 3657,655.4 L3649,721 C3640.99996,721.800004 3633.53337,722.2 3626.6,722.2 Z" id="Fannypack" fill="#444BC9"></path>
    </g>
</svg>