<?xml version="1.0" encoding="UTF-8"?>
<svg width="3844px" height="1118px" viewBox="0 0 3844 1118" version="1.1" xmlns="http://www.w3.org/2000/svg" xmlns:xlink="http://www.w3.org/1999/xlink">
    <!-- Generator: Sketch 52.5 (67469) - http://www.bohemiancoding.com/sketch -->
    <title>Artboard</title>
    <desc>Created with Sketch.</desc>
    <g id="Artboard" stroke="none" stroke-width="1" fill="none" fill-rule="evenodd">
        <g id="Group-3" transform="translate(646.000000, 553.000000) rotate(-14.000000) translate(-646.000000, -553.000000) translate(90.000000, 87.000000)" fill-rule="nonzero">
            <path d="M642.136259,255.250618 C892.434933,255.250618 1064.70294,330.166317 1107.32638,405.790897 C1108.56527,400.234746 1109.19788,394.609753 1109.19788,388.926328 C1109.19788,284.258062 894.640365,199.407667 629.970261,199.407667 C577.37082,199.407667 526.750624,202.758913 479.400442,208.950948 C462.352123,211.180376 445.72771,213.778067 429.58745,216.720196 C264.989447,246.723962 150.742645,312.548871 150.742645,388.926328 C150.742645,402.950695 154.594591,416.619271 161.902911,429.775623 C173.186945,369.228232 257.850525,319.587147 372.255027,288.934877 C387.665479,284.805972 403.615565,281.021609 419.998628,277.601543 C489.018207,263.193275 565.722348,255.250618 642.136259,255.250618 Z" id="Oval" fill="#E2E2E2" transform="translate(629.970261, 314.591645) rotate(26.000000) translate(-629.970261, -314.591645) "></path>
            <path d="M429.58745,216.720196 C264.989447,246.723962 150.742645,312.548871 150.742645,388.926328 C150.742645,402.950695 154.594591,416.619271 161.902911,429.775623 C173.186945,369.228232 257.850525,319.587147 372.255027,288.934877 M419.998628,277.601543 C489.018207,263.193275 565.722348,255.250618 642.136259,255.250618 C892.434933,255.250618 1064.70294,330.166317 1107.32638,405.790897 C1108.56527,400.234746 1109.19788,394.609753 1109.19788,388.926328 C1109.19788,284.258062 894.640365,199.407667 629.970261,199.407667 C577.37082,199.407667 526.750624,202.758913 479.400442,208.950948" id="Oval-Copy-6" stroke="#000000" stroke-width="12" fill="#E2E2E2" stroke-linecap="round" stroke-linejoin="round" transform="translate(629.970261, 314.591645) rotate(26.000000) translate(-629.970261, -314.591645) "></path>
            <path d="M167.279131,144.505778 C142.787938,194.655667 148.280884,216.779615 148.280884,240.892263 C148.280884,266.802941 161.673289,291.499156 185.917133,313.99435 C188.861425,291.040018 189.120654,278.359081 190.386143,251.550095 C181.347969,242.023255 166.802358,227.682697 163.109658,213.813145 C157.070437,191.130204 151.802869,180.33084 167.279131,144.505778 Z" id="Oval-Copy-8" stroke="#444BC9" stroke-width="4.8" fill="#444BC9" stroke-linecap="round" stroke-linejoin="round" transform="translate(169.070153, 229.250064) rotate(26.000000) translate(-169.070153, -229.250064) "></path>
            <path d="M155.283446,132.510926 C130.792253,182.660815 136.285199,204.784763 136.285199,228.897411 C136.285199,254.808089 149.677604,279.504304 173.921448,301.999498 C176.86574,279.045166 177.124969,266.364229 178.390458,239.555243 C169.352284,230.028403 154.806673,215.687845 151.113973,201.818293 C145.074752,179.135352 139.807184,168.335988 155.283446,132.510926 Z" id="Oval-Copy-10" stroke="#000000" stroke-width="12" stroke-linecap="round" stroke-linejoin="round" transform="translate(157.074468, 217.255212) rotate(26.000000) translate(-157.074468, -217.255212) "></path>
            <path d="M878.51674,748.397449 C959.521714,714.457531 1005.42753,666.857324 1012.98358,627.298372 C1015.55524,613.834708 1021.2991,585.886634 990.792612,523.343412 C1006.20692,554.945227 1000.56599,580.043141 989.413243,601.060147 C965.189604,646.708854 907.088499,674.147835 882.219637,686.276347 C881.602007,707.254762 879.86846,712.26845 878.51674,748.397449 Z" id="Oval-Copy-9" stroke="#000000" stroke-width="12" stroke-linecap="round" stroke-linejoin="round" transform="translate(946.838100, 635.870431) rotate(26.000000) translate(-946.838100, -635.870431) "></path>
            <path d="M890.512425,760.392301 C971.517399,726.452383 1017.42322,678.852176 1024.97926,639.293224 C1027.55092,625.82956 1033.29478,597.881486 1002.7883,535.338264 C1018.2026,566.940079 1012.56167,592.037993 1001.40893,613.054999 C977.185289,658.703706 919.084184,686.142687 894.215322,698.271199 C893.597692,719.249614 891.864145,724.263302 890.512425,760.392301 Z" id="Oval-Copy-7" stroke="#3926A5" stroke-width="4.8" fill="#444BC9" stroke-linecap="round" stroke-linejoin="round" transform="translate(958.833785, 647.865283) rotate(26.000000) translate(-958.833785, -647.865283) "></path>
            <path d="M155.283446,132.510926 C130.792253,182.660815 136.285199,204.784763 136.285199,228.897411 C136.285199,254.808089 149.677604,279.504304 173.921448,301.999498 C176.86574,279.045166 177.124969,266.364229 178.390458,239.555243 C169.352284,230.028403 154.806673,215.687845 151.113973,201.818293 C145.074752,179.135352 139.807184,168.335988 155.283446,132.510926 Z" id="Oval-Copy" stroke="#000000" stroke-width="12" fill-opacity="0" fill="#FFFFFF" stroke-linecap="round" stroke-linejoin="round" transform="translate(157.074468, 217.255212) rotate(26.000000) translate(-157.074468, -217.255212) "></path>
            <path d="M878.51674,748.397449 C959.521714,714.457531 1005.42753,666.857324 1012.98358,627.298372 C1015.55524,613.834708 1021.2991,585.886634 990.792612,523.343412 C1006.20692,554.945227 1000.56599,580.043141 989.413243,601.060147 C965.189604,646.708854 907.088499,674.147835 882.219637,686.276347 C881.602007,707.254762 879.86846,712.26845 878.51674,748.397449 Z" id="Oval-Copy-3" stroke="#000000" stroke-width="12" fill-opacity="0" fill="#FFFFFF" stroke-linecap="round" stroke-linejoin="round" transform="translate(946.838100, 635.870431) rotate(26.000000) translate(-946.838100, -635.870431) "></path>
            <g id="Group" transform="translate(436.772802, 587.012329) rotate(-330.000000) translate(-436.772802, -587.012329) translate(25.772802, 426.012329)">
                <path d="M125.954693,2.50111043e-12 L722.544969,6.91875307 C740.060775,63.6278684 744.154731,124.336314 734.826837,189.044089 C727.204832,241.918076 701.676881,287.048276 672.221206,292.003128 C475.718131,325.057667 357.170606,338.581754 181.312069,291.399608 C156.585984,284.765698 133.579025,248.414611 125.954693,195.524478 C116.62835,130.827467 116.62835,65.6526407 125.954693,2.50111043e-12 Z" id="Rectangle-Copy" stroke="#000000" stroke-width="12" fill="#E2E2E2" stroke-linecap="round" stroke-linejoin="round"></path>
                <path d="M133.750892,13.502476 L704.745498,13.502476 C710.295671,67.7647454 708.635673,121.266959 699.765505,174.009116 C692.494375,217.24337 679.427423,247.925946 605.206989,258.873376 C424.111248,285.584793 364.352929,292.339975 194.113148,248.368145 C173.849158,243.134088 146.750583,210.687139 139.492218,167.528791 C130.61354,114.736029 128.699764,63.3939243 133.750892,13.502476 Z" id="Rectangle-Copy-7" fill="#444BC9"></path>
                <path d="M536.548118,254.142137 C400.222229,272.974493 335.941715,273.512775 186.316948,234.865669 C166.052959,229.631612 138.954383,197.184663 131.696019,154.026314 C122.81734,101.233553 120.903565,49.8914483 125.954693,2.72848411e-12 L696.949299,2.72848411e-12 C702.499471,54.2622694 700.839473,107.764483 691.969305,160.50664 C684.698175,203.740894 671.631224,234.42347 597.410789,245.3709" id="Rectangle-Copy-3" stroke="#000000" stroke-width="12" stroke-linecap="round" stroke-linejoin="round"></path>
                <path d="M125.954693,2.04636308e-12 L696.949299,2.04636308e-12 C699.348383,33.4674734 700.371242,58.486229 700.017876,75.0562668 C699.405794,103.758014 658.986847,154.775453 584.766413,165.722883 C403.670672,192.4343 355.244084,195.115937 234.094453,163.861796 C197.715951,154.476883 125.400137,109.352405 124.144537,87.4095881 C123.014788,67.6661477 123.618174,38.5296183 125.954693,2.04636308e-12 Z" id="Rectangle-Copy-4" stroke="#000000" stroke-width="12" fill="#E2E2E2" stroke-linecap="round" stroke-linejoin="round"></path>
                <path d="M130.915649,39.7786471 L701.910255,39.7786471 C704.309339,45.369278 705.332198,49.5485784 704.978832,52.3165485 C704.36675,57.1110806 594.744604,62.8047762 413.648864,67.2668301 C232.553123,71.7288841 130.361093,58.045605 129.105493,54.38013 C127.975745,51.0820535 128.57913,46.2148926 130.915649,39.7786471 Z" id="Rectangle-Copy-6" fill="#444BC9"></path>
                <path d="M494.514952,29.98713 L694.871585,29.98713 C697.270669,35.5777608 698.293528,39.7570613 697.940162,42.5250314 C697.375505,46.9480748 604.038926,52.1363424 447.400303,56.4169391 M406.610194,57.475313 C319.274014,59.6272065 250.289239,57.5588628 202.127174,54.429204 C188.848801,53.5663511 177.153195,52.622826 167.092144,51.6648288 C137.976756,48.8925079 122.549945,45.9989899 122.066823,44.5886129 C120.937075,41.2905364 121.54046,36.4233754 123.876979,29.98713 L457.322812,29.98713" id="Rectangle-Copy-5" stroke="#000000" stroke-width="12" stroke-linecap="round" stroke-linejoin="round"></path>
                <path d="M11.0017227,6 C5.79706342,35.4738075 5.71136501,54.4980964 10.104419,62.1065607 C16.9825694,74.0190393 54.201373,91.2092277 119.954693,111.806543 L119.954693,6 L11.0017227,6 Z" id="Rectangle-Copy-9" stroke="#000000" stroke-width="12" fill="#FFFFFF"></path>
                <path d="M706.760257,6 C701.497125,33.7792616 701.764505,52.7628351 707.047052,62.4946395 C708.826511,65.7728577 719.624666,72.4518478 738.273128,80.9347909 C756.644521,89.291699 782.492396,99.4633569 815.784975,111.432011 L815.784975,6 L706.760257,6 Z" id="Rectangle-Copy-8" stroke="#000000" stroke-width="12" fill="#FFFFFF" transform="translate(759.367137, 59.974260) scale(-1, 1) translate(-759.367137, -59.974260) "></path>
            </g>
            <ellipse id="Oval-2-Copy-2" fill="#3926A5" cx="299.292341" cy="399.229086" rx="12.5954693" ry="32.3861004"></ellipse>
            <ellipse id="Oval-2" stroke="#000000" stroke-width="12" cx="293.294498" cy="389.633205" rx="12.5954693" ry="32.3861004"></ellipse>
        </g>
        <text id="Fannypack" font-family="PaytoneOne-Regular, Paytone One" font-size="400" font-weight="normal" fill="#444BC9">
            <tspan x="1341" y="719">Fannypack</tspan>
        </text>
    </g>
</svg>