<svg width="520" height="150" viewBox="0 0 520 150" fill="none" xmlns="http://www.w3.org/2000/svg">
<rect width="520" height="150" fill="white"/>
<path opacity="0.3" d="M152.678 78.8741H44.0984L36 98.3704H160.776L152.678 78.8741Z" fill="black"/>
<path d="M98.388 122.741C124.893 122.741 146.379 100.919 146.379 74.0001C146.379 47.0813 124.893 25.2594 98.388 25.2594C71.8834 25.2594 50.3972 47.0813 50.3972 74.0001C50.3972 100.919 71.8834 122.741 98.388 122.741Z" fill="#F9A524"/>
<path d="M56.8176 98.3704H139.959C131.661 112.939 116.152 122.741 98.3881 122.741C80.6247 122.741 65.1155 112.939 56.8176 98.3704V98.3704Z" fill="#F78000"/>
<path fill-rule="evenodd" clip-rule="evenodd" d="M213.536 51.0155C221.715 51.0155 228.85 54.773 232.482 60.9296L224.904 65.5708C222.377 61.7506 218.431 59.4774 213.474 59.4774C205.485 59.4774 199.517 65.35 199.517 73.9385C199.517 82.8109 205.674 88.399 213.474 88.399C218.399 88.399 222.346 86.2206 224.998 82.3372L232.198 87.5153C228.219 93.2615 221.651 96.8609 213.536 96.8609C199.896 96.8609 190.328 87.2308 190.328 73.9385C190.328 60.6456 199.896 51.0155 213.536 51.0155ZM260.304 51.015C273.913 51.015 283.544 60.7083 283.544 73.9379C283.544 87.1675 273.913 96.8609 260.304 96.8609C246.663 96.8609 237.096 87.1675 237.096 73.9379C237.096 60.7083 246.663 51.015 260.304 51.015ZM384.728 51.8359V79.937C384.728 91.051 378.098 96.8293 368.878 96.8293C361.584 96.8293 357.132 93.6403 354.764 90.7043L359.879 84.2942C361.647 86.473 364.426 88.399 368.468 88.399C373.14 88.399 375.919 85.5256 375.919 79.1161V51.8359H384.728ZM299.248 51.8359V96.04H290.438V51.8359H299.248ZM317.532 51.8359L339.982 81.3581V51.8359H348.823V96.04H340.55L318.132 66.5183L318.1 96.04H309.291V51.8359H317.532ZM416.553 51.8359L433.762 96.04H424.352L420.5 85.7469H401.649L397.797 96.04H388.609L405.817 51.8359H416.553ZM458.142 51.8359C468.688 51.8359 474.338 56.8249 474.338 65.2868C474.338 72.549 469.288 77.4742 460.795 78.3267L474.406 96.04H463.731L450.848 78.4532H448.259V96.04H439.45V51.8359H458.142ZM260.304 59.4769C252.189 59.4769 246.284 65.3495 246.284 73.9379C246.284 82.5258 252.189 88.399 260.304 88.399C268.482 88.399 274.324 82.5258 274.324 73.9379C274.324 65.3495 268.482 59.4769 260.304 59.4769ZM411.091 60.5503L404.68 77.6322H417.469L411.091 60.5503ZM457.984 59.9506H448.259V70.7806H457.984C462.815 70.7806 465.278 69.0438 465.278 65.2868C465.278 61.5925 462.689 59.9506 457.984 59.9506Z" fill="#1058A1"/>
</svg>
