<?xml version="1.0" encoding="UTF-8"?>
<svg width="926px" height="192px" viewBox="0 0 926 192" version="1.1" xmlns="http://www.w3.org/2000/svg" xmlns:xlink="http://www.w3.org/1999/xlink">
    <!-- Generator: Sketch 52.5 (67469) - http://www.bohemiancoding.com/sketch -->
    <title>Primary logo</title>
    <desc>Created with Sketch.</desc>
    <g id="Page-1" stroke="none" stroke-width="1" fill="none" fill-rule="evenodd">
        <g id="Mediapass-logo-update/2-colour/Black">
            <g id="Medipass-2-Colour-RGB">
                <polygon id="Path" fill="#000000" points="299.8 101.19 335.13 32 359.6 32 359.6 160 335 160 335 80.21 307.4 136.15 291.71 136.15 264.47 80.76 264.47 160 240 160 240 32 264.1 32"></polygon>
                <path d="M449.43,145 C442.99,156.22 432.32,160.64 415.76,160.64 C388.16,160.64 374.91,142.79 374.91,119.05 L374.91,106.52 C374.91,78.74 388.91,65.31 412.81,65.31 C438.76,65.31 450.72,80.39 450.72,108.36 L450.72,118.85 L398.28,118.85 C398.46,131.55 402.51,140.75 415.57,140.75 C425.33,140.75 428.45,137.8 431.95,132.83 L449.43,145 Z M398.28,102.13 L427.17,102.13 C426.61,90.13 421.83,85.2 413,85.2 C403.61,85.18 399.2,91.62 398.28,102.11 L398.28,102.13 Z" id="Shape" fill="#000000" fill-rule="nonzero"></path>
                <path d="M516.79,32 L540.16,32 L540.16,160 L516.79,160 L516.79,153.63 C512.01,158.04 505.79,160.63 497.1,160.63 C473,160.63 460.67,143.52 460.67,119.04 L460.67,106.52 C460.67,79.66 475.21,65.31 497.1,65.31 C505.01,65.31 511.64,67.31 516.79,71.75 L516.79,32 Z M516.79,117.56 L516.79,106 C516.79,92.57 511.45,85.21 500.41,85.21 C488.82,85.18 484,93.27 484,108 L484,117.57 C484,130.82 487.68,140.76 500.37,140.76 C513.66,140.75 516.79,130.81 516.79,117.56 Z" id="Shape" fill="#000000" fill-rule="nonzero"></path>
                <path d="M555.78,32 L581.17,32 L581.17,54.82 L555.78,54.82 L555.78,32 Z M556.7,67 L580.25,67 L580.25,160 L556.7,160 L556.7,67 Z" id="Shape" fill="#000000" fill-rule="nonzero"></path>
                <path d="M676.17,119 C676.17,142.93 664.03,160.59 640.29,160.59 C630.72,160.59 624.29,158.75 620.05,155.25 L620.05,192 L596.5,192 L596.5,67 L620.05,67 L620.05,73 C624.47,68 631.05,65.28 640.47,65.28 C661.82,65.28 676.17,80.18 676.17,106.49 L676.17,119 Z M652.62,117.53 L652.62,108 C652.62,93.28 648.02,85.19 636.43,85.19 C625.2,85.19 620.05,92.55 620.05,105.98 L620.05,117.57 C620.05,130.82 623.18,140.76 636.43,140.76 C649.12,140.75 652.62,130.81 652.62,117.56 L652.62,117.53 Z" id="Shape" fill="#000000" fill-rule="nonzero"></path>
                <path d="M718.73,103.76 L736.94,103.76 L736.94,98.43 C736.94,88.12 733.82,84.81 720.57,84.81 C711.57,84.81 707.14,86.1 703.27,92.17 L686.71,80.58 C693.52,69.35 703.82,65.31 722.78,65.31 C746.51,65.31 759.95,72.31 759.95,98.61 L759.95,160 L736.95,160 L736.95,150.87 C733.27,157.12 727.75,160.62 717.08,160.62 C697.95,160.62 684.7,150.5 684.7,131.73 C684.69,112.23 699.41,103.76 718.73,103.76 Z M736.94,121.06 L721.49,121.06 C711.92,121.06 707.69,124.19 707.69,131.36 C707.69,138.36 713.02,141.67 721.12,141.67 C731.79,141.67 736.94,137.07 736.94,124.55 L736.94,121.06 Z" id="Shape" fill="#000000" fill-rule="nonzero"></path>
                <path d="M825.17,92.91 C821.17,88.12 817.08,85.55 807.17,85.55 C801.1,85.55 795.58,87.39 795.58,92.72 C795.58,98.24 800.58,100.27 810.3,101.72 C832.93,105.21 844.3,113.86 844.3,132.08 C844.3,149.74 831.97,160.6 808.23,160.6 C789.46,160.6 778.06,156 770.14,145.33 L788.14,132.45 C791.82,137.45 796.42,140.36 807.82,140.36 C815.92,140.36 820.89,137.6 820.89,132.81 C820.89,127.11 816.84,125.27 805.25,123.43 C786.11,120.3 772.13,112.21 772.13,93.62 C772.13,76.14 784.64,65.29 807.64,65.29 C822.73,65.29 835.24,68.78 842.42,80.56 L825.17,92.91 Z" id="Path" fill="#000000"></path>
                <path d="M906.86,92.91 C902.86,88.12 898.77,85.55 888.86,85.55 C882.79,85.55 877.27,87.39 877.27,92.72 C877.27,98.24 882.27,100.27 891.99,101.72 C914.62,105.21 925.99,113.86 925.99,132.08 C925.99,149.74 913.66,160.6 889.92,160.6 C871.16,160.6 859.75,156 851.84,145.33 L869.84,132.45 C873.52,137.45 878.12,140.36 889.53,140.36 C897.62,140.36 902.59,137.6 902.59,132.81 C902.59,127.11 898.59,125.27 886.95,123.43 C867.81,120.3 853.83,112.21 853.83,93.62 C853.83,76.14 866.34,65.29 889.34,65.29 C904.43,65.29 916.94,68.78 924.12,80.56 L906.86,92.91 Z" id="Path" fill="#000000"></path>
                <path d="M64,0 C28.653776,-2.164332e-15 4.32866401e-15,28.653776 0,64 L0,192 L128,192 C163.346224,192 192,163.346224 192,128 L192,0 L64,0 Z" id="Shape" fill="#007FA3" fill-rule="nonzero"></path>
                <polygon id="Path" fill="#FFFFFF" fill-rule="nonzero" points="160 112 112 112 112 160 80 160 80 112 32 112 32 80 80 80 80 32 112 32 112 80 160 80"></polygon>
            </g>
        </g>
    </g>
</svg>